/* XPM */
static char *_6c28e9ab9c04b0ed8c88b47cfa8a46fjgSrZFZH8zuG6O2u[] = {
/* columns rows colors chars-per-pixel */
"64 64 6 1 ",
"  c #161C2E",
". c #2A485E",
"X c #27716F",
"o c #3E8948",
"O c #2F966A",
"+ c #5AB659",
/* pixels */
"oooooooooooooooooooooooooooooooooooooooooooooooooooooooooooooooo",
"oooooooooooooooooooooooooooooooooooooooooooooooooooooooooooooooo",
"oooooooooooooooooooooooooooooooooooooooooooooooooooooooooooooooo",
"oooooooooooooooooooooooooooooooooooooooooooooooooooooooooooooooo",
"oooooooooooooooooooooooooooooooooooooooooooooooooooooooooooooooo",
"oooooooooooooooooooooooooooooooooooooooooooooooooooooooooooooooo",
"oooooooooooooooooooooooooooooooooooooooooooooooooooooooooooooooo",
"oooooooooooooooooooooooooooooooooooooooooooooooooooooooooooooooo",
"oooooooooooooooooooooooooooooooooooooooooooooooooooooooooooooooo",
"oooooooooooooooooooooooooooooooooooooooooooooooooooooooooooooooo",
"oooooooooooooooooooooooooooooooooooooooooooooooooooooooooooooooo",
"oooooooooooooooooooooooooooooooooooo    oooooooooooooooooooooooo",
"ooooooooooooooooooo    ooooooo    o      ooooooooooooooooooooooo",
"oooooooooooooooooo      o   o        ..  ooooooooooooooooooooooo",
"ooooooooooooooooo   XX        +++   ....  oooooooooooooooooooooo",
"ooooooooooooooooo  XXXX      +++++  ....   ooooooooooooooooooooo",
"ooooooooooooooooo  XXXX  ++  +++++   ..     o    ooooooooooooooo",
"oooooooooooo   o   XXXX ++++ ++++     +++         oooooooooooooo",
"ooooooooooo         XXXO+++++++++    +++++           ooooooooooo",
"oooooooooo   ..        O+++++++OO  +++++++O  OOO      oooooooooo",
"oooooooooo  ....   ++  OO++++OOO  ++++++++O OOOOO  .. oooooooooo",
"oooooooooo  ....  O+++  OOOO+++++++++++++OO OOOOO ....    oooooo",
"ooooooooo    ... OO+++  OOOO+++++++++OOO+OOOOOOOO ....     ooooo",
"oooooooo         OO+++     OO+++++++OOOOO+++OOOO  ...      ooooo",
"oooooooo    XXX  OO++   ++  O++OO+++OOOOO+++OOOO           ooooo",
"oooooo     XXXXX OOOO  ++++ O+OOOO+++OOO++++     OOO      oooooo",
"ooooo      XXXXX XX    ++++OOOOOOOOOOOOO+++     OOOOO      ooooo",
"oooo        XXXXXXX OO  +++OOOOOOOOOOOOO++      OOOOO       oooo",
"oooo  ..     XXXXX  OO    OOOOOOOOOXXXOOOO OOO  OOXXO  XXX   ooo",
"oooo .... .. .XXXX  OOOO  OOOOOOOOXXXXXOOOOOOOO  XXX  XXXXX  ooo",
"oooo .........XXXX  OOOOO OXXOOOOOXXXXXOOXXXOOO  XXX  XXXXX  ooo",
"oooo  ... ....XXXX   OOOOOXXXXOOOOXXXXXOXXXXXOO XXXXXXXXXX   ooo",
"ooooo     ....XXXXX  XXXXXXXXXOOOXXXXXXXXXXXXOO XXXXXXXXX   oooo",
"oooooo   ...XXXXXXXXXXXXXXXXXXOXXXXOOOXXXXXXOOOOXXXXXX     ooooo",
"ooooo   ....XXX..XXXOOOXXXXXXOOXXXOOOOXXXXXXXOOXXXXXXXX     oooo",
"ooooo   ....XX....XXOOOXXXXXOOOOXXOOOXXXXXXXXXXXX..XXXX ..   ooo",
"ooooo    ....X....XXXOOXXXXXXOOOXXXXXXXXXXXXXXXX....XX ....  ooo",
"oooooo     ......XXXXXXXXXXXXXOOXXXXXXXXX...XXXX...........  ooo",
"ooooooo  ........XX.....XXXXXXXXXX...XXX.....XXX...........  ooo",
"oooooo  .........X.......XXXXXXX......XX.....XXXX.........  oooo",
"oooooo ..... ............X..XXXXX............XXXX...       ooooo",
"oooooo ....  ...........XX...XXXX..XXX......XXXXX....     oooooo",
"oooooo  ..   ...... ...XXXX..XXX..XXXX......XXXX........   ooooo",
"oooooo       ...... ...XXXX...XX..XXXX.......XX..........   oooo",
"ooooooo       ....  ....XX........XXXX ........... ......   oooo",
"ooooooooooo          ..............XX. .........    ....    oooo",
"oooooooooooo            ...... .....   .... .....          ooooo",
"ooooooooooooooooo      .......  ..      ...  ....         oooooo",
"oooooooooooooooooooo   ......                   ooooo   oooooooo",
"ooooooooooooooooooooo   ....       ooooo     ooooooooooooooooooo",
"oooooooooooooooooooooooooooooooooooooooooooooooooooooooooooooooo",
"oooooooooooooooooooooooooooooooooooooooooooooooooooooooooooooooo",
"oooooooooooooooooooooooooooooooooooooooooooooooooooooooooooooooo",
"oooooooooooooooooooooooooooooooooooooooooooooooooooooooooooooooo",
"oooooooooooooooooooooooooooooooooooooooooooooooooooooooooooooooo",
"oooooooooooooooooooooooooooooooooooooooooooooooooooooooooooooooo",
"oooooooooooooooooooooooooooooooooooooooooooooooooooooooooooooooo",
"oooooooooooooooooooooooooooooooooooooooooooooooooooooooooooooooo",
"oooooooooooooooooooooooooooooooooooooooooooooooooooooooooooooooo",
"oooooooooooooooooooooooooooooooooooooooooooooooooooooooooooooooo",
"oooooooooooooooooooooooooooooooooooooooooooooooooooooooooooooooo",
"oooooooooooooooooooooooooooooooooooooooooooooooooooooooooooooooo",
"oooooooooooooooooooooooooooooooooooooooooooooooooooooooooooooooo",
"oooooooooooooooooooooooooooooooooooooooooooooooooooooooooooooooo"
};
