/* XPM */
static char *_391998b34d14c70bf079fd2a3c709027EUo1E1btqW82h8f[] = {
/* columns rows colors chars-per-pixel */
"110 62 11 1 ",
"  c #14182E",
". c #404973",
"X c #AB5130",
"o c #CF752B",
"O c #3E8948",
"+ c #F0B541",
"@ c #686F99",
"# c #FFEE83",
"$ c #A3A7C2",
"% c #DFE0E8",
"& c #F5FFE8",
/* pixels */
"OOOOO    OOOOOOOOOOOO    OOOOOOOOOOOO    OOOOOOOOOOOO    OOOOOOOOOOOO    OOOOOOOOOOOO    OOOOOOOOOOOO    OOOOO",
"OOO  ####  OOOOOOOO  &&##  OOOOOOOO  &&&&  OOOOOOOO  #&&&  OOOOOOOO  ####  OOOOOOOO  ####  OOOOOOOO  ####  OOO",
"OO #++++++# OOOOOO &&&&#++# OOOOOO &&&&&&&# OOOOOO #+#&&&&& OOOOOO #++++#&& OOOOOO #++++++# OOOOOO #++++++# OO",
"O #++++++++# OOOO &&&&#++++# OOOO #&&&&&&#+# OOOO #++#&&&&&& OOOO #++++#&&&& OOOO #++++++++# OOOO #++++++++# O",
"O ++++++++++ OOOO &&&#++++++ OOOO &&&&&&&#++ OOOO ++#&&&&&&& OOOO +++++#&&&& OOOO ++++++++#& OOOO ++++++++++ O",
" #++++++++++# OO &&&#+++++++# OO #&&&&&&#+++# OO #++#&&&&&&## OO #+++++#&&&&& OO #+++++++#&&& OO #++++++++++# ",
" ++++++++++++ OO &&#+++++++++ OO &&&&&&#+++++ OO ++#&&&&&&&#+ OO +++++#&&&&&& OO ++++++++#&&& OO +++++++++++# ",
" ++++++++++++ OO &&#+++++++++ OO &&&&&#++++++ OO ++#&&&&&&#++ OO +++++#&&&&&& OO ++++++++#&&& OO ++++++++++#& ",
" o++++++++++o OO &#+++++++++o OO &&&&#++++++o OO o#&&&&&&#++o OO o+++#&&&&&&& OO o++++++#&&&& OO o+++++++++#& ",
"O ++++++++++ OOOO ++++++++++ OOOO &&&#++++++ OOOO #&&&&&#+++ OOOO +++#&&&&&& OOOO ++++++#&&& OOOO +++++++++# O",
"O o++++++++o OOOO o++++++++o OOOO &&#++++++o OOOO &&&&&#+++o OOOO o+#&&&&&&+ OOOO o++++#&&&& OOOO o+++++++#& O",
"OO oo++++oo OOOOOO oo++++oo OOOOOO oo++++oo OOOOOO &&&&#+oo OOOOOO o+&&&&&+ OOOOOO oo++#&&& OOOOOO oo++++o+ OO",
"OOO  oooo  OOOOOOOO  oooo  OOOOOOOO  oooo  OOOOOOOO  &+oo  OOOOOOOO  &&&&  OOOOOOOO  o+&&  OOOOOOOO  oooo  OOO",
"OOOOO    OOOOOOOOOOOO    OOOOOOOOOOOO    OOOOOOOOOOOO    OOOOOOOOOOOO    OOOOOOOOOOOO    OOOOOOOOOOOO    OOOOO",
"OOOOOOOOOOOOOOOOOOOOOOOOOOOOOOOOOOOOOOOOOOOOOOOOOOOOOOOOOOOOOOOOOOOOOOOOOOOOOOOOOOOOOOOOOOOOOOOOOOOOOOOOOOOOOO",
"OOOOOOOOOOOOOOOOOOOOOOOOOOOOOOOOOOOOOOOOOOOOOOOOOOOOOOOOOOOOOOOOOOOOOOOOOOOOOOOOOOOOOOOOOOOOOOOOOOOOOOOOOOOOOO",
"OOOOO    OOOOOOOOOOOO    OOOOOOOOOOOO    OOOOOOOOOOOO    OOOOOOOOOOOO    OOOOOOOOOOOO    OOOOOOOOOOOO    OOOOO",
"OOO  %%%%  OOOOOOOO  &&%%  OOOOOOOO  &&&&  OOOOOOOO  %&&&  OOOOOOOO  %%%%  OOOOOOOO  %%%%  OOOOOOOO  %%%%  OOO",
"OO %$$$$$$% OOOOOO &&&&%$$% OOOOOO &&&&&&&% OOOOOO %$%&&&&& OOOOOO %$$$$%&& OOOOOO %$$$$$$% OOOOOO %$$$$$$% OO",
"O %$$$$$$$$% OOOO &&&&%$$$$% OOOO %&&&&&&%$% OOOO %$$%&&&&&& OOOO %$$$$%&&&& OOOO %$$$$$$$$% OOOO %$$$$$$$$% O",
"O $$$$$$$$$$ OOOO &&&%$$$$$$ OOOO &&&&&&&%$$ OOOO $$%&&&&&&& OOOO $$$$$%&&&& OOOO $$$$$$$$%& OOOO $$$$$$$$$$ O",
" %$$$$$$$$$$% OO &&&%$$$$$$$% OO %&&&&&&%$$$% OO %$$%&&&&&&%% OO %$$$$$%&&&&& OO %$$$$$$$%&&& OO %$$$$$$$$$$% ",
" $$$$$$$$$$$$ OO &&%$$$$$$$$$ OO &&&&&&%$$$$$ OO $$%&&&&&&&%$ OO $$$$$%&&&&&& OO $$$$$$$$%&&& OO $$$$$$$$$$$% ",
" $$$$$$$$$$$$ OO &&%$$$$$$$$$ OO &&&&&%$$$$$$ OO $$%&&&&&&%$$ OO $$$$$%&&&&&& OO $$$$$$$$%&&& OO $$$$$$$$$$%& ",
" @$$$$$$$$$$@ OO &%$$$$$$$$$@ OO &&&&%$$$$$$@ OO @%&&&&&&%$$@ OO @$$$%&&&&&&& OO @$$$$$$%&&&& OO @$$$$$$$$$%& ",
"O $$$$$$$$$$ OOOO $$$$$$$$$$ OOOO &&&%$$$$$$ OOOO %&&&&&%$$$ OOOO $$$%&&&&&& OOOO $$$$$$%&&& OOOO $$$$$$$$$% O",
"O @$$$$$$$$@ OOOO @$$$$$$$$@ OOOO &&%$$$$$$@ OOOO &&&&&%$$$@ OOOO @$%&&&&&&$ OOOO @$$$$%&&&& OOOO @$$$$$$$%& O",
"OO @@$$$$@@ OOOOOO @@$$$$@@ OOOOOO @@$$$$@@ OOOOOO &&&&%$@@ OOOOOO @$&&&&&$ OOOOOO @@$$%&&& OOOOOO @@$$$$@$ OO",
"OOO  @@@@  OOOOOOOO  @@@@  OOOOOOOO  @@@@  OOOOOOOO  &$@@  OOOOOOOO  &&&&  OOOOOOOO  @$&&  OOOOOOOO  @@@@  OOO",
"OOOOO    OOOOOOOOOOOO    OOOOOOOOOOOO    OOOOOOOOOOOO    OOOOOOOOOOOO    OOOOOOOOOOOO    OOOOOOOOOOOO    OOOOO",
"OOOOOOOOOOOOOOOOOOOOOOOOOOOOOOOOOOOOOOOOOOOOOOOOOOOOOOOOOOOOOOOOOOOOOOOOOOOOOOOOOOOOOOOOOOOOOOOOOOOOOOOOOOOOOO",
"OOOOOOOOOOOOOOOOOOOOOOOOOOOOOOOOOOOOOOOOOOOOOOOOOOOOOOOOOOOOOOOOOOOOOOOOOOOOOOOOOOOOOOOOOOOOOOOOOOOOOOOOOOOOOO",
"OOOOO    OOOOOOOOOOOO    OOOOOOOOOOOO    OOOOOOOOOOOO    OOOOOOOOOOOO    OOOOOOOOOOOO    OOOOOOOOOOOO    OOOOO",
"OOO  $$$$  OOOOOOOO  &&$$  OOOOOOOO  &&&&  OOOOOOOO  $&&&  OOOOOOOO  $$$$  OOOOOOOO  $$$$  OOOOOOOO  $$$$  OOO",
"OO $@@@@@@$ OOOOOO &&&&$@@$ OOOOOO &&&&&&&$ OOOOOO $@$&&&&& OOOOOO $@@@@$&& OOOOOO $@@@@@@$ OOOOOO $@@@@@@$ OO",
"O $@@@@@@@@$ OOOO &&&&$@@@@$ OOOO $&&&&&&$@$ OOOO $@@$&&&&&& OOOO $@@@@$&&&& OOOO $@@@@@@@@$ OOOO $@@@@@@@@$ O",
"O @@@@@@@@@@ OOOO &&&$@@@@@@ OOOO &&&&&&&$@@ OOOO @@$&&&&&&& OOOO @@@@@$&&&& OOOO @@@@@@@@$& OOOO @@@@@@@@@@ O",
" $@@@@@@@@@@$ OO &&&$@@@@@@@$ OO $&&&&&&$@@@$ OO $@@$&&&&&&$$ OO $@@@@@$&&&&& OO $@@@@@@@$&&& OO $@@@@@@@@@@$ ",
" @@@@@@@@@@@@ OO &&$@@@@@@@@@ OO &&&&&&$@@@@@ OO @@$&&&&&&&$@ OO @@@@@$&&&&&& OO @@@@@@@@$&&& OO @@@@@@@@@@@$ ",
" @@@@@@@@@@@@ OO &&$@@@@@@@@@ OO &&&&&$@@@@@@ OO @@$&&&&&&$@@ OO @@@@@$&&&&&& OO @@@@@@@@$&&& OO @@@@@@@@@@$& ",
" .@@@@@@@@@@. OO &$@@@@@@@@@. OO &&&&$@@@@@@. OO .$&&&&&&$@@. OO .@@@$&&&&&&& OO .@@@@@@$&&&& OO .@@@@@@@@@$& ",
"O @@@@@@@@@@ OOOO @@@@@@@@@@ OOOO &&&$@@@@@@ OOOO $&&&&&$@@@ OOOO @@@$&&&&&& OOOO @@@@@@$&&& OOOO @@@@@@@@@$ O",
"O .@@@@@@@@. OOOO .@@@@@@@@. OOOO &&$@@@@@@. OOOO &&&&&$@@@. OOOO .@$&&&&&&@ OOOO .@@@@$&&&& OOOO .@@@@@@@$& O",
"OO ..@@@@.. OOOOOO ..@@@@.. OOOOOO ..@@@@.. OOOOOO &&&&$@.. OOOOOO .@&&&&&@ OOOOOO ..@@$&&& OOOOOO ..@@@@.@ OO",
"OOO  ....  OOOOOOOO  ....  OOOOOOOO  ....  OOOOOOOO  &@..  OOOOOOOO  &&&&  OOOOOOOO  .@&&  OOOOOOOO  ....  OOO",
"OOOOO    OOOOOOOOOOOO    OOOOOOOOOOOO    OOOOOOOOOOOO    OOOOOOOOOOOO    OOOOOOOOOOOO    OOOOOOOOOOOO    OOOOO",
"OOOOOOOOOOOOOOOOOOOOOOOOOOOOOOOOOOOOOOOOOOOOOOOOOOOOOOOOOOOOOOOOOOOOOOOOOOOOOOOOOOOOOOOOOOOOOOOOOOOOOOOOOOOOOO",
"OOOOOOOOOOOOOOOOOOOOOOOOOOOOOOOOOOOOOOOOOOOOOOOOOOOOOOOOOOOOOOOOOOOOOOOOOOOOOOOOOOOOOOOOOOOOOOOOOOOOOOOOOOOOOO",
"OOOOO    OOOOOOOOOOOO    OOOOOOOOOOOO    OOOOOOOOOOOO    OOOOOOOOOOOO    OOOOOOOOOOOO    OOOOOOOOOOOO    OOOOO",
"OOO  ++++  OOOOOOOO  &&++  OOOOOOOO  &&&&  OOOOOOOO  +&&&  OOOOOOOO  ++++  OOOOOOOO  ++++  OOOOOOOO  ++++  OOO",
"OO +oooooo+ OOOOOO &&&&+oo+ OOOOOO &&&&&&&+ OOOOOO +o+&&&&& OOOOOO +oooo+&& OOOOOO +oooooo+ OOOOOO +oooooo+ OO",
"O +oooooooo+ OOOO &&&&+oooo+ OOOO +&&&&&&+o+ OOOO +oo+&&&&&& OOOO +oooo+&&&& OOOO +oooooooo+ OOOO +oooooooo+ O",
"O oooooooooo OOOO &&&+oooooo OOOO &&&&&&&+oo OOOO oo+&&&&&&& OOOO ooooo+&&&& OOOO oooooooo+& OOOO oooooooooo O",
" +oooooooooo+ OO &&&+ooooooo+ OO +&&&&&&+ooo+ OO +oo+&&&&&&++ OO +ooooo+&&&&& OO +ooooooo+&&& OO +oooooooooo+ ",
" oooooooooooo OO &&+ooooooooo OO &&&&&&+ooooo OO oo+&&&&&&&+o OO ooooo+&&&&&& OO oooooooo+&&& OO ooooooooooo+ ",
" oooooooooooo OO &&+ooooooooo OO &&&&&+oooooo OO oo+&&&&&&+oo OO ooooo+&&&&&& OO oooooooo+&&& OO oooooooooo+& ",
" XooooooooooX OO &+oooooooooX OO &&&&+ooooooX OO X+&&&&&&+ooX OO Xooo+&&&&&&& OO Xoooooo+&&&& OO Xooooooooo+& ",
"O oooooooooo OOOO oooooooooo OOOO &&&+oooooo OOOO +&&&&&+ooo OOOO ooo+&&&&&& OOOO oooooo+&&& OOOO ooooooooo+ O",
"O XooooooooX OOOO XooooooooX OOOO &&+ooooooX OOOO &&&&&+oooX OOOO Xo+&&&&&&o OOOO Xoooo+&&&& OOOO Xooooooo+& O",
"OO XXooooXX OOOOOO XXooooXX OOOOOO XXooooXX OOOOOO &&&&+oXX OOOOOO Xo&&&&&o OOOOOO XXoo+&&& OOOOOO XXooooXo OO",
"OOO  XXXX  OOOOOOOO  XXXX  OOOOOOOO  XXXX  OOOOOOOO  &oXX  OOOOOOOO  &&&&  OOOOOOOO  Xo&&  OOOOOOOO  XXXX  OOO",
"OOOOO    OOOOOOOOOOOO    OOOOOOOOOOOO    OOOOOOOOOOOO    OOOOOOOOOOOO    OOOOOOOOOOOO    OOOOOOOOOOOO    OOOOO"
};
